<svg width="831" height="534" viewBox="0 0 831 534" fill="none" xmlns="http://www.w3.org/2000/svg">
<mask id="mask0_117_2" style="mask-type:luminance" maskUnits="userSpaceOnUse" x="0" y="0" width="830" height="534">
<path d="M0 0.333008H830V533.666H0V0.333008Z" fill="white"/>
</mask>
<g mask="url(#mask0_117_2)">
<mask id="mask1_117_2" style="mask-type:luminance" maskUnits="userSpaceOnUse" x="0" y="0" width="831" height="534">
<path d="M830.667 0.333008H0V533.666H830.667V0.333008Z" fill="white"/>
</mask>
<g mask="url(#mask1_117_2)">
<mask id="mask2_117_2" style="mask-type:luminance" maskUnits="userSpaceOnUse" x="0" y="1" width="830" height="532">
<path d="M0.484375 1.27539H829.99V532.265H0.484375V1.27539Z" fill="white"/>
</mask>
<g mask="url(#mask2_117_2)">
<mask id="mask3_117_2" style="mask-type:luminance" maskUnits="userSpaceOnUse" x="0" y="0" width="831" height="533">
<path d="M830.667 0.333008H0V532.333H830.667V0.333008Z" fill="white"/>
</mask>
<g mask="url(#mask3_117_2)">
<mask id="mask4_117_2" style="mask-type:luminance" maskUnits="userSpaceOnUse" x="0" y="1" width="746" height="461">
<path d="M0.484375 1.37988H745.333V461.666H0.484375V1.37988Z" fill="white"/>
</mask>
<g mask="url(#mask4_117_2)">
<path d="M650.396 2.35951C671.89 -1.7759 706.047 7.64076 721.942 22.4376C736.224 35.7293 743.578 52.2501 744.333 71.2658C745.312 93.0522 737.104 114.281 721.614 130.083C703.406 148.88 678.494 157.87 652.156 158.615C648.692 158.714 647.521 158.729 645.312 156.672L645.562 155.12C650.349 151.391 665.713 151.146 673.239 149.24C682.885 146.802 692.036 142.787 700.302 137.365C717.036 126.156 729.312 108.995 732.948 89.4897C736.166 72.2397 733.593 53.3751 723.01 38.8543C712.088 23.8856 694.557 15.7553 676.302 12.8074C634.942 6.11472 596.114 25.8647 566.333 52.1824C501.458 109.516 443.182 229.792 409.135 308.636C399.953 329.906 364.76 422.276 347.078 433.62C344.963 434.974 341.677 436.162 339.13 435.271C337.687 434.761 337.156 434.156 336.64 432.792C333.661 424.823 343.885 399.406 345.599 389.599C347.109 380.964 347.734 371.886 348.317 363.141C349.948 338.537 347.937 313.537 346.578 288.948C342.901 222.537 342.062 155.849 373.463 94.8856C360.375 108.12 349.192 129.839 340.453 146.047C281.213 255.922 251.177 444.573 95.5726 461.24C75.2445 461.807 59.234 460.781 40.7445 451.063C-2.10971 428.526 -10.4378 370.547 12.3799 331.63C24.6924 310.75 45.1455 295.552 69.1403 289.453C76.5361 287.547 96.4893 284.094 103.26 287.912L103.614 289.349C100.791 292.323 76.6611 294.094 67.0517 297.271C55.6924 301.021 45.2757 307.063 36.4945 314.995C19.5361 330.511 9.67675 351.958 9.09341 374.557C8.40071 395.146 14.3226 415.156 28.8851 430.474C41.1247 443.349 64.0153 451.073 81.6195 450.735C181.047 448.823 243.854 311.354 279.01 238.568C289.583 216.339 300.583 194.302 312.01 172.474C329.645 138.948 353.411 98.7293 380.739 72.0262C385.838 67.047 405.422 51.3231 412.166 51.4012C413.187 54.6512 405.765 64.5001 403.38 69.0731C394.385 86.6981 387.942 105.448 384.229 124.781C373.411 178.276 383.203 246.557 380.682 302.792C380.052 315.672 378.672 328.511 376.547 341.245C375.468 347.703 372.067 357.245 372.453 363L373.51 363.552C374.807 361.432 381.349 343.948 382.5 341.021C387.864 327.245 393.614 313.61 399.744 300.136C420.088 254.5 441.328 208.177 465.39 164.271C503.13 95.4272 562.448 10.6408 650.396 2.35951Z" fill="white"/>
</g>
<mask id="mask5_117_2" style="mask-type:luminance" maskUnits="userSpaceOnUse" x="481" y="220" width="347" height="313">
<path d="M481.334 220.333H828.001V532.265H481.334V220.333Z" fill="white"/>
</mask>
<g mask="url(#mask5_117_2)">
<path d="M482.438 221.302C503.109 221.328 523.776 221.244 544.453 221.052C571.234 220.843 597.766 218.354 621.432 233.13C635.115 241.515 644.688 254.932 647.953 270.302C657.365 312.515 631.344 349.822 587.901 358.338C619.698 376.572 630.688 404.4 649.354 434.083C658.807 449.385 669.604 463.869 681.615 477.385C708.313 507.088 750.005 532.213 791.953 517.442C805.792 512.578 813.813 504.807 824.526 495.479L826.318 495.859L826.865 497.447C825.406 501.843 819.891 507.609 816.302 510.593C794.031 529.109 773.927 532.406 746.203 531.463C676.964 522.619 646.073 476.661 613.62 422.76C604.167 407.067 595.359 389.635 582.172 376.635C567.177 361.859 549.802 362.13 529.901 362.083C530.724 385.078 526.135 442.505 534.932 461.229C539.219 470.369 547.229 470.848 555.651 474.036C557.521 474.744 557.844 474.697 558.641 476.473C554.99 478.354 489.396 478.593 483.828 477.197C483.703 471.968 498.776 472.098 501.464 466.328C508.984 450.208 506.276 424.781 506.271 407.249L506.26 327.755L506.396 276.598C506.547 252.385 511.552 229.541 483.453 224.88C482.62 224.744 482.557 222.124 482.438 221.302ZM530.339 229.343L530.036 316.494C529.99 328.458 530.448 343.89 529.901 355.624C557.292 355.52 577.063 357.01 600.682 341.687C645.292 301.859 624.682 225.958 559.01 228.359C552.776 228.588 545.974 228.119 539.729 228.843L530.339 229.343Z" fill="white"/>
</g>
</g>
</g>
</g>
</g>
</svg>
