<svg xmlns="http://www.w3.org/2000/svg" xmlns:xlink="http://www.w3.org/1999/xlink" width="831" zoomAndPan="magnify" viewBox="0 0 623.25 906.749968" height="1209" preserveAspectRatio="xMidYMid meet" version="1.0"><defs><clipPath id="9ac87996b7"><path d="M 0 226 L 622.5 226 L 622.5 626 L 0 626 Z M 0 226 " clip-rule="nonzero"/></clipPath><clipPath id="0336d9eeb5"><path d="M 0.363281 0.707031 L 622.492188 0.707031 L 622.492188 398.949219 L 0.363281 398.949219 Z M 0.363281 0.707031 " clip-rule="nonzero"/></clipPath><clipPath id="bf516e5491"><path d="M 0.363281 0.785156 L 559 0.785156 L 559 346 L 0.363281 346 Z M 0.363281 0.785156 " clip-rule="nonzero"/></clipPath><clipPath id="31f500276d"><path d="M 361 165 L 621 165 L 621 398.949219 L 361 398.949219 Z M 361 165 " clip-rule="nonzero"/></clipPath><clipPath id="b4bde9cc7e"><rect x="0" width="623" y="0" height="399"/></clipPath><clipPath id="160231a3d9"><rect x="0" width="623" y="0" height="400"/></clipPath></defs><g clip-path="url(#9ac87996b7)"><g transform="matrix(1, 0, 0, 1, 0, 226)"><g clip-path="url(#160231a3d9)"><g clip-path="url(#0336d9eeb5)"><g transform="matrix(1, 0, 0, 1, 0, -0.000000000000056843)"><g clip-path="url(#b4bde9cc7e)"><g clip-path="url(#bf516e5491)"><path fill="#ffffff" d="M 487.796875 1.519531 C 503.917969 -1.582031 529.535156 5.480469 541.457031 16.578125 C 552.167969 26.546875 557.683594 38.9375 558.25 53.199219 C 558.984375 69.539062 552.828125 85.460938 541.210938 97.3125 C 527.554688 111.410156 508.871094 118.152344 489.117188 118.710938 C 486.519531 118.785156 485.640625 118.796875 483.984375 117.253906 L 484.171875 116.089844 C 487.761719 113.292969 499.285156 113.109375 504.929688 111.679688 C 512.164062 109.851562 519.027344 106.839844 525.226562 102.773438 C 537.777344 94.367188 546.984375 81.496094 549.710938 66.867188 C 552.125 53.929688 550.195312 39.78125 542.257812 28.890625 C 534.066406 17.664062 520.917969 11.566406 507.226562 9.355469 C 476.207031 4.335938 447.085938 19.148438 424.75 38.886719 C 376.09375 81.886719 332.386719 172.09375 306.851562 231.226562 C 299.964844 247.179688 273.570312 316.457031 260.308594 324.964844 C 258.722656 325.980469 256.257812 326.871094 254.347656 326.203125 C 253.265625 325.820312 252.867188 325.367188 252.480469 324.34375 C 250.246094 318.367188 257.914062 299.304688 259.199219 291.949219 C 260.332031 285.472656 260.800781 278.664062 261.238281 272.105469 C 262.460938 253.652344 260.953125 234.902344 259.933594 216.460938 C 257.175781 166.652344 256.546875 116.636719 280.097656 70.914062 C 270.28125 80.839844 261.894531 97.128906 255.339844 109.285156 C 210.910156 191.691406 188.382812 333.179688 71.679688 345.679688 C 56.433594 346.105469 44.425781 345.335938 30.558594 338.046875 C -1.582031 321.144531 -7.828125 277.660156 9.285156 248.472656 C 18.519531 232.8125 33.859375 221.414062 51.855469 216.839844 C 57.402344 215.410156 72.367188 212.820312 77.445312 215.683594 L 77.710938 216.761719 C 75.59375 218.992188 57.496094 220.320312 50.289062 222.703125 C 41.769531 225.515625 33.957031 230.046875 27.371094 235.996094 C 14.652344 247.632812 7.257812 263.71875 6.820312 280.667969 C 6.300781 296.109375 10.742188 311.117188 21.664062 322.605469 C 30.84375 332.261719 48.011719 338.054688 61.214844 337.800781 C 135.785156 336.367188 182.890625 233.265625 209.257812 178.675781 C 217.1875 162.003906 225.4375 145.476562 234.007812 129.105469 C 247.234375 103.960938 265.058594 73.796875 285.554688 53.769531 C 289.378906 50.035156 304.066406 38.242188 309.125 38.300781 C 309.890625 40.738281 304.324219 48.125 302.535156 51.554688 C 295.789062 64.773438 290.957031 78.835938 288.171875 93.335938 C 280.058594 133.457031 287.402344 184.667969 285.511719 226.84375 C 285.039062 236.503906 284.003906 246.132812 282.410156 255.683594 C 281.601562 260.527344 279.050781 267.683594 279.339844 272 L 280.132812 272.414062 C 281.105469 270.824219 286.011719 257.710938 286.875 255.515625 C 290.898438 245.183594 295.210938 234.957031 299.808594 224.851562 C 315.066406 190.625 330.996094 155.882812 349.042969 122.953125 C 377.347656 71.320312 421.835938 7.730469 487.796875 1.519531 Z M 487.796875 1.519531 " fill-opacity="1" fill-rule="nonzero"/></g><g clip-path="url(#31f500276d)"><path fill="#ffffff" d="M 361.828125 165.726562 C 377.332031 165.746094 392.832031 165.683594 408.339844 165.539062 C 428.425781 165.382812 448.324219 163.515625 466.074219 174.597656 C 476.335938 180.886719 483.515625 190.949219 485.964844 202.476562 C 493.023438 234.136719 473.507812 262.117188 440.925781 268.503906 C 464.773438 282.179688 473.015625 303.050781 487.015625 325.3125 C 494.105469 336.789062 502.203125 347.652344 511.210938 357.789062 C 531.234375 380.066406 562.503906 398.910156 593.964844 387.832031 C 604.34375 384.183594 610.359375 378.355469 618.394531 371.359375 L 619.738281 371.644531 L 620.148438 372.835938 C 619.054688 376.132812 614.917969 380.457031 612.226562 382.695312 C 595.523438 396.582031 580.445312 399.054688 559.652344 398.347656 C 507.722656 391.714844 484.554688 357.246094 460.214844 316.820312 C 453.125 305.050781 446.519531 291.976562 436.628906 282.226562 C 425.382812 271.144531 412.351562 271.347656 397.425781 271.3125 C 398.042969 288.558594 394.601562 331.628906 401.199219 345.671875 C 404.414062 352.527344 410.421875 352.886719 416.738281 355.277344 C 418.140625 355.808594 418.382812 355.773438 418.980469 357.105469 C 416.242188 358.515625 367.046875 358.695312 362.871094 357.648438 C 362.777344 353.726562 374.082031 353.824219 376.097656 349.496094 C 381.738281 337.40625 379.707031 318.335938 379.703125 305.1875 L 379.695312 245.566406 L 379.796875 207.199219 C 379.910156 189.039062 383.664062 171.90625 362.589844 168.410156 C 361.964844 168.308594 361.917969 166.34375 361.828125 165.726562 Z M 397.753906 171.757812 L 397.527344 237.121094 C 397.492188 246.09375 397.835938 257.667969 397.425781 266.46875 C 417.96875 266.390625 432.796875 267.507812 450.511719 256.015625 C 483.96875 226.144531 468.511719 169.21875 419.257812 171.019531 C 414.582031 171.191406 409.480469 170.839844 404.796875 171.382812 Z M 397.753906 171.757812 " fill-opacity="1" fill-rule="nonzero"/></g></g></g></g></g></g></g></svg>